<?xml version="1.0" encoding="UTF-8"?>
<!DOCTYPE svg PUBLIC "-//W3C//DTD SVG 1.1//EN" "http://www.w3.org/Graphics/SVG/1.1/DTD/svg11.dtd">
<svg xmlns="http://www.w3.org/2000/svg" version="1.1" width="500px" height="333px" style="shape-rendering:geometricPrecision; text-rendering:geometricPrecision; image-rendering:optimizeQuality; fill-rule:evenodd; clip-rule:evenodd" xmlns:xlink="http://www.w3.org/1999/xlink">
<g><path style="opacity:0.998" fill="#045f2f" d="M 309.5,115.5 C 240.335,114.501 171.002,114.167 101.5,114.5C 101.5,113.5 101.5,112.5 101.5,111.5C 117.986,93.5381 137.653,80.0381 160.5,71C 216.173,51.6311 272.507,49.4645 329.5,64.5C 324.17,80.9879 318.337,97.3212 312,113.5C 311.292,114.381 310.458,115.047 309.5,115.5 Z"/></g>
<g><path style="opacity:0.996" fill="#045e2f" d="M 357.5,76.5 C 358.251,75.4265 359.251,75.2599 360.5,76C 375.843,83.0287 389.843,92.0287 402.5,103C 406.725,106.722 410.392,110.888 413.5,115.5C 412.667,115.833 411.833,116.167 411,116.5C 398.188,115.713 385.355,115.213 372.5,115C 371.667,114.167 370.833,113.333 370,112.5C 366.098,100.29 361.931,88.2895 357.5,76.5 Z"/></g>
<g><path style="opacity:1" fill="#f71d18" d="M 341.5,69.5 C 342.75,69.5774 343.583,70.244 344,71.5C 351.5,93.3333 359,115.167 366.5,137C 366.167,137.5 365.833,138 365.5,138.5C 357.96,134.615 349.96,132.281 341.5,131.5C 333.159,132.864 325.159,135.03 317.5,138C 325.999,115.336 333.999,92.5031 341.5,69.5 Z"/></g>
<g><path style="opacity:0.8" fill="#105734" d="M 101.5,111.5 C 101.5,112.5 101.5,113.5 101.5,114.5C 171.002,114.167 240.335,114.501 309.5,115.5C 239.166,115.667 168.833,115.5 98.5,115C 99.1634,113.482 100.163,112.315 101.5,111.5 Z"/></g>
<g><path style="opacity:1" fill="#f61e18" d="M 113.5,125.5 C 123.274,125.05 132.94,125.716 142.5,127.5C 143.497,134.134 143.83,140.8 143.5,147.5C 133.768,144.78 124.101,144.947 114.5,148C 109.011,150.468 105.511,154.635 104,160.5C 100.301,180.159 108.301,190.493 128,191.5C 132.958,191.35 137.792,190.85 142.5,190C 144.323,195.961 145.99,201.961 147.5,208C 132.133,212.575 116.8,212.575 101.5,208C 80.9215,197.673 73.0882,181.173 78,158.5C 83.3345,140.327 95.1678,129.327 113.5,125.5 Z"/></g>
<g><path style="opacity:0.999" fill="#f71d18" d="M 401.5,129.5 C 402.833,129.5 404.167,129.5 405.5,129.5C 405.5,135.833 405.5,142.167 405.5,148.5C 409.833,148.5 414.167,148.5 418.5,148.5C 418.5,154.167 418.5,159.833 418.5,165.5C 413.833,165.5 409.167,165.5 404.5,165.5C 404.763,174.177 405.263,182.843 406,191.5C 409.755,194.775 413.755,194.775 418,191.5C 419.936,197.336 421.436,203.336 422.5,209.5C 413.578,211.27 404.578,211.77 395.5,211C 387.462,209.459 382.628,204.626 381,196.5C 380.5,176.169 380.333,155.836 380.5,135.5C 387.733,133.945 394.733,131.945 401.5,129.5 Z"/></g>
<g><path style="opacity:0.997" fill="#f71d18" d="M 338.5,142.5 C 352.622,140.487 363.789,145.154 372,156.5C 377.604,174.242 371.104,184.075 352.5,186C 346.137,186.391 339.803,187.058 333.5,188C 337.368,191.794 342.035,193.96 347.5,194.5C 354.269,193.849 360.769,192.183 367,189.5C 369.561,195.544 370.728,201.711 370.5,208C 358.084,212.405 345.418,213.405 332.5,211C 316.215,206.696 308.215,196.03 308.5,179C 309.311,159.042 319.311,146.875 338.5,142.5 Z M 341.5,160.5 C 344.271,160.421 346.937,160.921 349.5,162C 350.554,163.388 350.72,164.888 350,166.5C 344.804,168.914 339.304,169.914 333.5,169.5C 334.083,164.587 336.75,161.587 341.5,160.5 Z"/></g>
<g><path style="opacity:0.987" fill="#f71d18" d="M 267.5,143.5 C 285.061,140.596 296.227,147.596 301,164.5C 305.317,181.395 301.15,195.895 288.5,208C 278.108,213.978 267.941,213.811 258,207.5C 257.957,218.93 257.29,230.263 256,241.5C 248.438,244.516 240.604,246.516 232.5,247.5C 232.5,213.5 232.5,179.5 232.5,145.5C 239.833,145.5 247.167,145.5 254.5,145.5C 254.34,147.199 254.506,148.866 255,150.5C 258.728,147.223 262.895,144.89 267.5,143.5 Z M 263.5,163.5 C 268.74,162.538 272.907,164.205 276,168.5C 276.667,174.5 276.667,180.5 276,186.5C 273.167,192.672 268.667,194.506 262.5,192C 260.19,190.363 258.69,188.196 258,185.5C 257.333,180.167 257.333,174.833 258,169.5C 259.36,166.977 261.193,164.977 263.5,163.5 Z"/></g>
<g><path style="opacity:0.522" fill="#d02c28" d="M 154.5,146.5 C 162.65,145.507 170.983,145.174 179.5,145.5C 179.5,159.5 179.5,173.5 179.5,187.5C 178.504,174.01 178.171,160.344 178.5,146.5C 170.5,146.5 162.5,146.5 154.5,146.5 Z"/></g>
<g><path style="opacity:0.998" fill="#f81c18" d="M 154.5,146.5 C 162.5,146.5 170.5,146.5 178.5,146.5C 178.171,160.344 178.504,174.01 179.5,187.5C 184.716,194.494 189.549,194.16 194,186.5C 194.5,172.837 194.667,159.171 194.5,145.5C 203.167,145.5 211.833,145.5 220.5,145.5C 220.5,167.167 220.5,188.833 220.5,210.5C 213.167,210.5 205.833,210.5 198.5,210.5C 198.66,208.801 198.494,207.134 198,205.5C 192.149,210.507 185.315,212.84 177.5,212.5C 164.688,212.526 157.188,206.192 155,193.5C 154.5,177.837 154.333,162.17 154.5,146.5 Z"/></g>
<g><path style="opacity:0.996" fill="#045f2e" d="M 111.5,229.5 C 146.168,229.333 180.835,229.5 215.5,230C 217.286,230.785 218.786,231.951 220,233.5C 220.168,243.517 220.668,253.517 221.5,263.5C 235.873,259.49 250.206,255.323 264.5,251C 265.667,249.833 266.833,248.667 268,247.5C 268.585,242.489 269.251,237.489 270,232.5C 270.772,231.151 271.939,230.318 273.5,230C 315.837,229.167 358.171,229.333 400.5,230.5C 381.181,247.833 358.848,259.999 333.5,267C 277.887,281.757 222.554,280.757 167.5,264C 149.333,257.586 132.666,248.586 117.5,237C 114.882,234.894 112.882,232.394 111.5,229.5 Z"/></g>
</svg>
